<?xml version="1.0" encoding="UTF-8" standalone="no"?>
<svg
   xmlns:dc="http://purl.org/dc/elements/1.1/"
   xmlns:cc="http://creativecommons.org/ns#"
   xmlns:rdf="http://www.w3.org/1999/02/22-rdf-syntax-ns#"
   xmlns:svg="http://www.w3.org/2000/svg"
   xmlns="http://www.w3.org/2000/svg"
   viewBox="0 0 405.33334 369.33334"
   height="369.33334"
   width="405.33334"
   xml:space="preserve"
   id="svg2"
   version="1.1"><metadata
     id="metadata8"><rdf:RDF><cc:Work
         rdf:about=""><dc:format>image/svg+xml</dc:format><dc:type
           rdf:resource="http://purl.org/dc/dcmitype/StillImage" /></cc:Work></rdf:RDF></metadata><defs
     id="defs6" /><g
     transform="matrix(1.3333333,0,0,-1.3333333,0,369.33333)"
     id="g10"><g
       transform="scale(0.1)"
       id="g12"><path
         id="path14"
         style="fill:#231f20;fill-opacity:1;fill-rule:evenodd;stroke:none"
         d="M 76.832,1122.44 V 471.652 H 2962.23 v 650.778 l 73.84,0.01 V 371.305 h -114.26 c -15.66,0 -28.35,-12.688 -28.35,-28.344 V 137.148 c 0,-15.652 12.69,-28.343 28.35,-28.343 h 114.26 V 2.44141 H 3 V 108.805 h 117.121 c 15.66,0 28.348,12.691 28.348,28.343 v 205.813 c 0,15.656 -12.688,28.344 -28.348,28.344 H 3 V 1122.44 Z M 2527.79,342.961 V 137.148 c 0,-15.652 12.69,-28.343 28.35,-28.343 h 133.31 c 15.66,0 28.35,12.691 28.35,28.343 v 205.813 c 0,15.656 -12.69,28.344 -28.35,28.344 h -133.31 c -15.66,0 -28.35,-12.688 -28.35,-28.344 z m -365.66,0 V 137.148 c 0,-15.652 12.69,-28.343 28.34,-28.343 h 133.32 c 15.65,0 28.34,12.691 28.34,28.343 v 205.813 c 0,15.656 -12.69,28.344 -28.34,28.344 h -133.32 c -15.65,0 -28.34,-12.688 -28.34,-28.344 z m -365.67,0 V 137.148 c 0,-15.652 12.69,-28.343 28.34,-28.343 h 133.32 c 15.65,0 28.34,12.691 28.34,28.343 v 205.813 c 0,15.656 -12.69,28.344 -28.34,28.344 H 1824.8 c -15.65,0 -28.34,-12.688 -28.34,-28.344 z m -365.67,0 V 137.148 c 0,-15.652 12.69,-28.343 28.34,-28.343 h 133.32 c 15.66,0 28.34,12.691 28.34,28.343 v 205.813 c 0,15.656 -12.68,28.344 -28.34,28.344 h -133.32 c -15.65,0 -28.34,-12.688 -28.34,-28.344 z m -365.67,0 V 137.148 c 0,-15.652 12.69,-28.343 28.34,-28.343 h 133.32 c 15.65,0 28.35,12.691 28.35,28.343 v 205.813 c 0,15.656 -12.7,28.344 -28.35,28.344 h -133.32 c -15.65,0 -28.34,-12.688 -28.34,-28.344 z m -365.671,0 V 137.148 c 0,-15.652 12.692,-28.343 28.348,-28.343 h 133.312 c 15.657,0 28.348,12.691 28.348,28.343 v 205.813 c 0,15.656 -12.691,28.344 -28.348,28.344 H 727.797 c -15.656,0 -28.348,-12.688 -28.348,-28.344 z m -365.668,0 V 137.148 c 0,-15.652 12.692,-28.343 28.348,-28.343 h 133.312 c 15.657,0 28.348,12.691 28.348,28.343 v 205.813 c 0,15.656 -12.691,28.344 -28.348,28.344 H 362.129 c -15.656,0 -28.348,-12.688 -28.348,-28.344" /><path
         id="path16"
         style="fill:#231f20;fill-opacity:1;fill-rule:evenodd;stroke:none"
         d="M 3,1122.44 V 2368.8 h 117.121 c 15.66,0 28.348,12.7 28.348,28.35 v 205.81 c 0,15.65 -12.688,28.35 -28.348,28.35 H 3 v 133.35 h 3033.07 v -133.35 h -114.26 c -15.66,0 -28.35,-12.7 -28.35,-28.35 v -205.81 c 0,-15.65 12.69,-28.35 28.35,-28.35 h 114.26 V 1122.44 h -73.84 V 2295.45 H 76.832 V 1122.43 Z m 2524.79,1480.52 v -205.81 c 0,-15.65 12.69,-28.35 28.35,-28.35 h 133.31 c 15.66,0 28.35,12.7 28.35,28.35 v 205.81 c 0,15.65 -12.69,28.35 -28.35,28.35 h -133.31 c -15.66,0 -28.35,-12.7 -28.35,-28.35 z m -365.66,0 v -205.81 c 0,-15.65 12.69,-28.35 28.34,-28.35 h 133.32 c 15.65,0 28.34,12.7 28.34,28.35 v 205.81 c 0,15.65 -12.69,28.35 -28.34,28.35 h -133.32 c -15.65,0 -28.34,-12.7 -28.34,-28.35 z m -365.67,0 v -205.81 c 0,-15.65 12.69,-28.35 28.34,-28.35 h 133.32 c 15.65,0 28.34,12.7 28.34,28.35 v 205.81 c 0,15.65 -12.69,28.35 -28.34,28.35 H 1824.8 c -15.65,0 -28.34,-12.7 -28.34,-28.35 z m -365.67,0 v -205.81 c 0,-15.65 12.69,-28.35 28.34,-28.35 h 133.32 c 15.66,0 28.34,12.7 28.34,28.35 v 205.81 c 0,15.65 -12.68,28.35 -28.34,28.35 h -133.32 c -15.65,0 -28.34,-12.7 -28.34,-28.35 z m -365.67,0 v -205.81 c 0,-15.65 12.69,-28.35 28.34,-28.35 h 133.32 c 15.65,0 28.35,12.7 28.35,28.35 v 205.81 c 0,15.65 -12.7,28.35 -28.35,28.35 h -133.32 c -15.65,0 -28.34,-12.7 -28.34,-28.35 z m -365.671,0 v -205.81 c 0,-15.65 12.692,-28.35 28.348,-28.35 h 133.312 c 15.657,0 28.348,12.7 28.348,28.35 v 205.81 c 0,15.65 -12.691,28.35 -28.348,28.35 H 727.797 c -15.656,0 -28.348,-12.7 -28.348,-28.35 z m -365.668,0 v -205.81 c 0,-15.65 12.692,-28.35 28.348,-28.35 h 133.312 c 15.657,0 28.348,12.7 28.348,28.35 v 205.81 c 0,15.65 -12.691,28.35 -28.348,28.35 H 362.129 c -15.656,0 -28.348,-12.7 -28.348,-28.35" /><path
         id="path18"
         style="fill:#231f20;fill-opacity:1;fill-rule:evenodd;stroke:none"
         d="m 201,1321.63 h 204.691 c 64.668,0 113.653,-5.04 146.957,-15.13 33.301,-10.08 60.188,-30.5 80.657,-61.23 20.468,-30.74 30.703,-80.27 30.703,-148.58 0,-46.19 -7.246,-78.39 -21.735,-96.6 -14.488,-18.215 -43.07,-32.203 -85.734,-41.965 47.676,-10.758 80.008,-28.613 96.992,-53.562 16.985,-24.946 25.477,-63.184 25.477,-114.704 V 716.5 c 0,-53.477 -6.098,-93.098 -18.285,-118.859 -12.196,-25.762 -31.629,-43.368 -58.293,-52.828 -26.668,-9.458 -81.297,-14.188 -163.895,-14.188 H 201 Z m 206.004,-135 v -176 c 8.605,0.32 15.305,0.48 20.094,0.48 19.761,0 32.355,4.97 37.777,14.91 5.418,9.94 8.133,38.39 8.133,85.32 0,24.77 -2.235,42.12 -6.699,52.06 -4.461,9.94 -10.282,16.22 -17.454,18.83 -7.171,2.61 -21.121,4.07 -41.851,4.4 z m 0,-299.005 v -222 c 28.375,0.98 46.473,5.551 54.285,13.719 7.813,8.168 11.719,28.261 11.719,60.281 v 74 c 0,33.98 -3.512,54.563 -10.528,61.75 -7.015,7.188 -25.507,11.27 -55.476,12.25" /><path
         id="path20"
         style="fill:#231f20;fill-opacity:1;fill-rule:evenodd;stroke:none"
         d="m 1245.79,857.969 c 0,-79.449 -1.87,-135.699 -5.61,-168.75 -3.74,-33.051 -15.44,-63.254 -35.11,-90.61 -19.67,-27.355 -46.24,-48.355 -79.73,-63.007 -33.49,-14.649 -72.51,-21.977 -117.05,-21.977 -42.263,0 -80.22,6.922 -113.872,20.758 -33.652,13.84 -60.719,34.597 -81.203,62.273 -20.488,27.68 -32.68,57.797 -36.582,90.36 -3.899,32.562 -5.848,89.547 -5.848,170.953 v 135.312 c 0,79.449 1.867,135.699 5.606,168.749 3.742,33.05 15.445,63.26 35.113,90.61 19.668,27.36 46.242,48.36 79.734,63.01 33.489,14.65 72.508,21.98 117.052,21.98 42.26,0 80.21,-6.92 113.87,-20.76 33.65,-13.84 60.72,-34.6 81.2,-62.28 20.49,-27.67 32.68,-57.79 36.58,-90.36 3.9,-32.56 5.85,-89.54 5.85,-170.949 z m -206,259.751 c 0,36.77 -1.99,60.28 -5.97,70.53 -3.98,10.25 -12.18,15.38 -24.58,15.38 -10.502,0 -18.533,-4.15 -24.103,-12.45 -5.567,-8.3 -8.348,-32.78 -8.348,-73.46 V 748.672 c 0,-45.887 1.828,-74.195 5.488,-84.938 3.664,-10.738 12.168,-16.109 25.523,-16.109 13.69,0 22.44,6.184 26.26,18.547 3.82,12.367 5.73,41.82 5.73,88.359 v 363.189" /><path
         id="path22"
         style="fill:#231f20;fill-opacity:1;fill-rule:nonzero;stroke:none"
         d="m 1783.43,1321.63 -150,-504.708 V 530.625 h -190 v 286.297 l -145.01,504.708 h 188.76 c 29.31,-154.77 46.07,-258.84 50.28,-312.22 11.79,84.34 30.86,188.41 57.22,312.22 h 188.75" /><path
         id="path24"
         style="fill:#231f20;fill-opacity:1;fill-rule:nonzero;stroke:none"
         d="m 2333.14,1321.63 -117.5,-357.146 128.5,-433.859 h -212 l -83.5,339.063 V 530.625 h -206 v 791.005 h 206 v -307.32 l 92.5,307.32 h 192" /><path
         id="path26"
         style="fill:#231f20;fill-opacity:1;fill-rule:evenodd;stroke:none"
         d="m 2854.77,857.969 c 0,-79.449 -1.87,-135.699 -5.61,-168.75 -3.74,-33.051 -15.44,-63.254 -35.11,-90.61 -19.66,-27.355 -46.24,-48.355 -79.73,-63.007 -33.49,-14.649 -72.51,-21.977 -117.05,-21.977 -42.26,0 -80.22,6.922 -113.87,20.758 -33.65,13.84 -60.72,34.597 -81.2,62.273 -20.49,27.68 -32.68,57.797 -36.58,90.36 -3.91,32.562 -5.85,89.547 -5.85,170.953 v 135.312 c 0,79.449 1.87,135.699 5.61,168.749 3.73,33.05 15.44,63.26 35.1,90.61 19.67,27.36 46.25,48.36 79.74,63.01 33.49,14.65 72.51,21.98 117.05,21.98 42.26,0 80.21,-6.92 113.87,-20.76 33.65,-13.84 60.72,-34.6 81.2,-62.28 20.49,-27.67 32.68,-57.79 36.58,-90.36 3.9,-32.56 5.85,-89.54 5.85,-170.949 z m -206,259.751 c 0,36.77 -1.99,60.28 -5.97,70.53 -3.98,10.25 -12.17,15.38 -24.58,15.38 -10.5,0 -18.53,-4.15 -24.1,-12.45 -5.57,-8.3 -8.35,-32.78 -8.35,-73.46 V 748.672 c 0,-45.887 1.83,-74.195 5.49,-84.938 3.66,-10.738 12.17,-16.109 25.53,-16.109 13.68,0 22.44,6.184 26.25,18.547 3.82,12.367 5.73,41.82 5.73,88.359 v 363.189" /><path
         id="path28"
         style="fill:#231f20;fill-opacity:1;fill-rule:evenodd;stroke:none"
         d="m 201,2223.01 h 207.098 c 56.004,0 99.062,-4.39 129.179,-13.18 30.125,-8.79 52.754,-21.47 67.895,-38.07 15.141,-16.6 25.398,-36.69 30.773,-60.28 5.375,-23.59 8.063,-60.12 8.063,-109.58 v -68.83 c 0,-50.43 -5.199,-87.21 -15.602,-110.31 -10.402,-23.1 -29.5,-40.84 -57.297,-53.21 -27.796,-12.36 -64.129,-18.54 -108.996,-18.54 h -55.109 v -319 H 201 Z m 206.004,-135 v -201.52 c 5.824,-0.32 10.832,-0.48 15.031,-0.48 18.762,0 31.778,4.65 39.055,13.94 7.277,9.29 10.914,28.61 10.914,57.95 v 65.06 c 0,27.06 -4.203,44.67 -12.609,52.83 -8.407,8.14 -25.868,12.22 -52.391,12.22" /><path
         id="path30"
         style="fill:#231f20;fill-opacity:1;fill-rule:nonzero;stroke:none"
         d="m 772.816,2223.01 h 343.004 v -158 h -137 v -151 h 128 v -150 h -128 v -174 h 151 v -158 H 772.816 v 791" /><path
         id="path32"
         style="fill:#231f20;fill-opacity:1;fill-rule:nonzero;stroke:none"
         d="m 1660.92,2223.01 v -158 h -121 v -633 h -206.01 v 633 h -122 v 158 h 449.01" /><path
         id="path34"
         style="fill:#231f20;fill-opacity:1;fill-rule:evenodd;stroke:none"
         d="m 1778.25,2223.01 h 145.51 c 97.01,0 162.69,-3.74 197.04,-11.23 34.34,-7.48 62.34,-26.6 83.98,-57.36 21.65,-30.76 32.47,-79.83 32.47,-147.21 0,-61.51 -7.65,-102.84 -22.95,-124 -15.29,-21.16 -45.4,-33.85 -90.33,-38.07 40.69,-10.11 68.03,-23.64 82.03,-40.59 14,-16.94 22.71,-32.5 26.13,-46.68 3.41,-14.18 5.12,-53.21 5.12,-117.09 v -208.77 h -191 v 263.11 c 0,42.37 -3.31,68.62 -9.93,78.73 -6.62,10.1 -23.98,15.16 -52.07,15.16 v -357 h -206 z m 206,-135 v -176 c 22.92,0 38.99,3.18 48.2,9.53 9.19,6.35 13.8,26.97 13.8,61.84 v 43.52 c 0,25.1 -4.44,41.55 -13.32,49.37 -8.88,7.83 -25.11,11.74 -48.68,11.74" /><path
         id="path36"
         style="fill:#231f20;fill-opacity:1;fill-rule:evenodd;stroke:none"
         d="m 2854.77,1759.36 c 0,-79.45 -1.87,-135.7 -5.61,-168.75 -3.74,-33.06 -15.44,-63.26 -35.11,-90.62 -19.66,-27.35 -46.24,-48.35 -79.73,-63.01 -33.49,-14.64 -72.51,-21.97 -117.05,-21.97 -42.26,0 -80.22,6.92 -113.87,20.76 -33.65,13.84 -60.72,34.59 -81.2,62.27 -20.49,27.68 -32.68,57.8 -36.58,90.36 -3.91,32.56 -5.85,89.55 -5.85,170.96 v 135.31 c 0,79.44 1.86,135.69 5.61,168.75 3.73,33.05 15.44,63.25 35.1,90.61 19.67,27.35 46.25,48.35 79.74,63.01 33.49,14.64 72.51,21.97 117.05,21.97 42.26,0 80.21,-6.92 113.87,-20.76 33.65,-13.84 60.72,-34.59 81.2,-62.27 20.49,-27.68 32.68,-57.8 36.58,-90.36 3.9,-32.57 5.85,-89.55 5.85,-170.95 z m -206,259.75 c 0,36.77 -1.99,60.27 -5.97,70.52 -3.98,10.26 -12.17,15.38 -24.58,15.38 -10.5,0 -18.53,-4.15 -24.1,-12.45 -5.57,-8.29 -8.35,-32.78 -8.35,-73.45 v -369.05 c 0,-45.89 1.83,-74.2 5.49,-84.94 3.66,-10.74 12.17,-16.11 25.53,-16.11 13.68,0 22.43,6.18 26.25,18.55 3.82,12.36 5.73,41.82 5.73,88.36 v 363.19" /></g></g></svg>